<?xml version="1.0" encoding="utf-8"?>
<!-- Svg Vector Icons : http://www.onlinewebfonts.com/icon -->
<!DOCTYPE svg PUBLIC "-//W3C//DTD SVG 1.1//EN" "http://www.w3.org/Graphics/SVG/1.1/DTD/svg11.dtd">
<svg version="1.1" xmlns="http://www.w3.org/2000/svg" xmlns:xlink="http://www.w3.org/1999/xlink" x="0px" y="0px" viewBox="0 0 1000 1000" enable-background="new 0 0 1000 1000" xml:space="preserve">
<metadata> Svg Vector Icons : http://www.onlinewebfonts.com/icon </metadata>
    <g><g transform="translate(0.000000,512.000000) scale(0.100000,-0.100000)"><path d="M4530.1,5007.9C3375.4,4889,2341.7,4400,1530.4,3588.6C751.6,2809.9,287.5,1860.5,124.4,723.1c-32.6-226.3-32.6-982,0-1208.3c163-1137.4,629.1-2086.8,1405.9-2865.5c776.8-776.8,1730-1244.8,2865.5-1405.9c226.3-32.6,982-32.6,1208.3,0c939.8,134.3,1779.9,491,2474.2,1053c987.8,797.9,1611.1,1916.1,1797.2,3218.4c32.6,226.3,32.6,982,0,1208.3c-161.1,1135.5-629.1,2088.7-1405.9,2865.5c-759.5,759.5-1687.8,1223.7-2779.2,1392.5C5448.8,5017.5,4775.6,5034.8,4530.1,5007.9z M6001.2,3268.3l63.3-61.4l9.6-939.8l9.6-939.8l63.3-61.4l61.4-63.3l939.8-9.6l939.8-9.6l61.4-63.3l63.3-61.4V119v-939.8l-63.3-61.4l-61.4-63.3l-939.8-9.6l-939.8-9.6L6147-1028l-63.3-61.4l-9.6-939.8l-9.6-939.8l-63.3-61.4l-61.4-63.3H5000h-939.8l-61.4,63.3l-63.3,61.4l-9.6,939.8l-9.6,939.8L3853-1028l-61.4,63.3l-939.8,9.6l-939.8,9.6l-61.4,63.3l-63.3,61.4V119v939.8l63.3,61.4l61.4,63.3l939.8,9.6l939.8,9.6l61.4,63.3l63.3,61.4l9.6,937.9l9.6,937.9l47.9,51.8c26.9,28.8,65.2,59.5,86.3,69.1c21.1,7.7,450.7,13.4,953.3,11.5l916.8-3.8L6001.2,3268.3z"/></g></g>
</svg>
